<mxfile host="app.diagrams.net" modified="2024-06-27T06:49:58.263Z" agent="Mozilla/5.0 (Windows NT 10.0; Win64; x64) AppleWebKit/537.36 (KHTML, like Gecko) Chrome/126.0.0.0 Safari/537.36" version="24.5.2" etag="EhG4pA--lC1J5n0y-5Hp" type="github">
  <diagram name="Page-1" id="MwEah-m6XNf_aI_ek7M7">
    <mxGraphModel>
      <root>
        <mxCell id="0" />
        <mxCell id="1" parent="0" />
      </root>
    </mxGraphModel>
  </diagram>
</mxfile>
